<svg xmlns="http://www.w3.org/2000/svg" viewBox="0 0 1100 280" role="img" aria-labelledby="t d">
  <title id="t">Phases M0 to M10</title>
  <desc id="d">Non-stop workflow from discovery through demo.</desc>
  <rect width="1100" height="280" fill="#F6F3EC"/>
  <text x="550" y="36" fill="#1A1814" font-family="Georgia, serif" font-size="20" text-anchor="middle">M0 ’ M10 · do not stop</text>
  <g font-family="ui-sans-serif, system-ui" font-size="11" text-anchor="middle">
    <rect x="24" y="80" width="84" height="88" rx="10" fill="#1A1814"/><text x="66" y="118" fill="#F6F3EC">M0</text><text x="66" y="140" fill="#C6A15B">Discover</text>
    <rect x="120" y="80" width="84" height="88" rx="10" fill="#1A1814"/><text x="162" y="118" fill="#F6F3EC">M1</text><text x="162" y="140" fill="#C6A15B">Journeys</text>
    <rect x="216" y="80" width="84" height="88" rx="10" fill="#1F4E5A"/><text x="258" y="118" fill="#F6F3EC">M2</text><text x="258" y="140" fill="#F6F3EC">Design</text>
    <rect x="312" y="80" width="84" height="88" rx="10" fill="#1F4E5A"/><text x="354" y="118" fill="#F6F3EC">M3</text><text x="354" y="140" fill="#F6F3EC">Architecture</text>
    <rect x="408" y="80" width="84" height="88" rx="10" fill="#1F4E5A"/><text x="450" y="118" fill="#F6F3EC">M4</text><text x="450" y="140" fill="#F6F3EC">Features</text>
    <rect x="504" y="80" width="84" height="88" rx="10" fill="#1F4E5A"/><text x="546" y="118" fill="#F6F3EC">M5</text><text x="546" y="140" fill="#F6F3EC">Backend</text>
    <rect x="600" y="80" width="84" height="88" rx="10" fill="#C6A15B"/><text x="642" y="118" fill="#1A1814">M6</text><text x="642" y="140" fill="#1A1814">Security</text>
    <rect x="696" y="80" width="84" height="88" rx="10" fill="#C6A15B"/><text x="738" y="118" fill="#1A1814">M7</text><text x="738" y="140" fill="#1A1814">Tests</text>
    <rect x="792" y="80" width="84" height="88" rx="10" fill="#C6A15B"/><text x="834" y="118" fill="#1A1814">M8</text><text x="834" y="140" fill="#1A1814">Perf</text>
    <rect x="888" y="80" width="84" height="88" rx="10" fill="#C6A15B"/><text x="930" y="118" fill="#1A1814">M9</text><text x="930" y="140" fill="#1A1814">Release</text>
    <rect x="984" y="80" width="92" height="88" rx="10" fill="#1A1814"/><text x="1030" y="118" fill="#F6F3EC">M10</text><text x="1030" y="140" fill="#C6A15B">Demo</text>
  </g>
  <text x="550" y="216" fill="#5A564C" font-family="ui-sans-serif, system-ui" font-size="14" text-anchor="middle">Resume from the first non-DONE row in docs/PROGRESS.md</text>
  <text x="550" y="248" fill="#8A8478" font-family="ui-sans-serif, system-ui" font-size="13" text-anchor="middle">Never ask should I continue? · never restart finished work</text>
</svg>
